# Blender v2.82 (sub 7) OBJ File: 'spike.blend'
# www.blender.org
mtllib spike.mtl
o Cone
v 0.000000 -0.002066 -0.123682
v 0.024129 -0.002066 -0.121306
v 0.047331 -0.002066 -0.114267
v 0.068714 -0.002066 -0.102838
v 0.087456 -0.002066 -0.087456
v 0.102838 -0.002066 -0.068714
v 0.114267 -0.002066 -0.047331
v 0.121306 -0.002066 -0.024129
v 0.123682 -0.002066 -0.000000
v 0.121306 -0.002066 0.024129
v 0.114267 -0.002066 0.047331
v 0.102838 -0.002066 0.068714
v 0.087456 -0.002066 0.087456
v 0.068714 -0.002066 0.102838
v 0.047331 -0.002066 0.114267
v 0.024129 -0.002066 0.121306
v -0.000000 -0.002066 0.123682
v -0.024129 -0.002066 0.121306
v -0.047331 -0.002066 0.114267
v -0.068714 -0.002066 0.102838
v -0.087456 -0.002066 0.087456
v -0.102838 -0.002066 0.068714
v -0.114267 -0.002066 0.047331
v 0.000000 2.680640 0.000000
v -0.121306 -0.002066 0.024129
v -0.123682 -0.002066 -0.000000
v -0.121305 -0.002066 -0.024129
v -0.114267 -0.002066 -0.047331
v -0.102838 -0.002066 -0.068714
v -0.087456 -0.002066 -0.087457
v -0.068714 -0.002066 -0.102838
v -0.047331 -0.002066 -0.114267
v -0.024129 -0.002066 -0.121306
vt 0.250000 0.490000
vt 0.250000 0.250000
vt 0.296822 0.485388
vt 0.341844 0.471731
vt 0.383337 0.449553
vt 0.419706 0.419706
vt 0.449553 0.383337
vt 0.471731 0.341844
vt 0.485388 0.296822
vt 0.490000 0.250000
vt 0.485388 0.203178
vt 0.471731 0.158156
vt 0.449553 0.116663
vt 0.419706 0.080294
vt 0.383337 0.050447
vt 0.341844 0.028269
vt 0.296822 0.014612
vt 0.250000 0.010000
vt 0.203178 0.014612
vt 0.158156 0.028269
vt 0.116663 0.050447
vt 0.080294 0.080294
vt 0.050447 0.116663
vt 0.028269 0.158156
vt 0.014611 0.203179
vt 0.010000 0.250000
vt 0.014612 0.296822
vt 0.028269 0.341844
vt 0.050447 0.383337
vt 0.080295 0.419706
vt 0.116663 0.449553
vt 0.158156 0.471731
vt 0.203179 0.485389
vt 0.750000 0.490000
vt 0.796822 0.485388
vt 0.841844 0.471731
vt 0.883337 0.449553
vt 0.919706 0.419706
vt 0.949553 0.383337
vt 0.971731 0.341844
vt 0.985388 0.296822
vt 0.990000 0.250000
vt 0.985388 0.203178
vt 0.971731 0.158156
vt 0.949553 0.116663
vt 0.919706 0.080294
vt 0.883337 0.050447
vt 0.841844 0.028269
vt 0.796822 0.014612
vt 0.750000 0.010000
vt 0.703178 0.014612
vt 0.658156 0.028269
vt 0.616663 0.050447
vt 0.580294 0.080294
vt 0.550447 0.116663
vt 0.528269 0.158156
vt 0.514611 0.203179
vt 0.510000 0.250000
vt 0.514612 0.296822
vt 0.528269 0.341844
vt 0.550447 0.383337
vt 0.580295 0.419706
vt 0.616663 0.449553
vt 0.658156 0.471731
vt 0.703179 0.485389
vn 0.0000 -0.6688 -0.7434
vn 0.0002 1.0000 0.0004
vn 0.1450 -0.6688 -0.7291
vn 0.2845 -0.6688 -0.6868
vn 0.4130 -0.6688 -0.6181
vn 0.5257 -0.6688 -0.5257
vn 0.6181 -0.6688 -0.4130
vn 0.6868 -0.6688 -0.2845
vn 0.7291 -0.6688 -0.1450
vn 0.7434 -0.6688 0.0000
vn 0.7291 -0.6688 0.1450
vn 0.6868 -0.6688 0.2845
vn 0.6181 -0.6688 0.4130
vn 0.5257 -0.6688 0.5257
vn 0.4130 -0.6688 0.6181
vn 0.2845 -0.6688 0.6868
vn 0.1450 -0.6688 0.7291
vn 0.0000 -0.6688 0.7434
vn -0.1450 -0.6688 0.7291
vn -0.2845 -0.6688 0.6868
vn -0.4130 -0.6688 0.6181
vn -0.5257 -0.6688 0.5257
vn -0.6181 -0.6688 0.4130
vn -0.6868 -0.6688 0.2845
vn -0.7291 -0.6688 0.1450
vn -0.7434 -0.6688 0.0000
vn -0.7291 -0.6688 -0.1450
vn -0.6868 -0.6688 -0.2845
vn -0.6181 -0.6688 -0.4130
vn -0.5257 -0.6688 -0.5257
vn -0.4130 -0.6688 -0.6181
vn -0.2845 -0.6688 -0.6868
vn -0.1450 -0.6688 -0.7291
usemtl None
s 1
f 1/1/1 24/2/2 2/3/3
f 2/3/3 24/2/2 3/4/4
f 3/4/4 24/2/2 4/5/5
f 4/5/5 24/2/2 5/6/6
f 5/6/6 24/2/2 6/7/7
f 6/7/7 24/2/2 7/8/8
f 7/8/8 24/2/2 8/9/9
f 8/9/9 24/2/2 9/10/10
f 9/10/10 24/2/2 10/11/11
f 10/11/11 24/2/2 11/12/12
f 11/12/12 24/2/2 12/13/13
f 12/13/13 24/2/2 13/14/14
f 13/14/14 24/2/2 14/15/15
f 14/15/15 24/2/2 15/16/16
f 15/16/16 24/2/2 16/17/17
f 16/17/17 24/2/2 17/18/18
f 17/18/18 24/2/2 18/19/19
f 18/19/19 24/2/2 19/20/20
f 19/20/20 24/2/2 20/21/21
f 20/21/21 24/2/2 21/22/22
f 21/22/22 24/2/2 22/23/23
f 22/23/23 24/2/2 23/24/24
f 23/24/24 24/2/2 25/25/25
f 25/25/25 24/2/2 26/26/26
f 26/26/26 24/2/2 27/27/27
f 27/27/27 24/2/2 28/28/28
f 28/28/28 24/2/2 29/29/29
f 29/29/29 24/2/2 30/30/30
f 30/30/30 24/2/2 31/31/31
f 31/31/31 24/2/2 32/32/32
f 32/32/32 24/2/2 33/33/33
f 33/33/33 24/2/2 1/1/1
f 1/34/1 2/35/3 3/36/4 4/37/5 5/38/6 6/39/7 7/40/8 8/41/9 9/42/10 10/43/11 11/44/12 12/45/13 13/46/14 14/47/15 15/48/16 16/49/17 17/50/18 18/51/19 19/52/20 20/53/21 21/54/22 22/55/23 23/56/24 25/57/25 26/58/26 27/59/27 28/60/28 29/61/29 30/62/30 31/63/31 32/64/32 33/65/33
